# xmcd CD database file
#
# Track frame offsets:
#	150
#	10707
#	28336
#	40269
#	58160
#	80649
#	106382
#	128299
#	145248
#	171249
#	187932
#	200691
#	242289
#
# Disc length: 3238 seconds
#
# Revision: 0
# Processed by: cddbd v1.5.1PL0 Copyright (c) Steve Scherf et al.
# Submitted via: CDex 1.51
#
DISCID=a90ca40d
DTITLE=Silly Walker - Silly Walke GOTTA MIX
DYEAR=1900
DGENRE=サウンドトラック (一般)
TTITLE0=Guiterfreaks 3rdMIX Cosmic Cowgirl -BH Crack-
TTITLE1=Paca Paca Passion Special Jet(Bbrb Mix)
TTITLE2=ParaPara Paradise Hold On Me(Be-Tight Style)
TTITLE3=Technictix Ts-Io -Bullet Handed Mix-
TTITLE4=Beatmania Append Gotta MIX Miracle Moon(Minus Mix)
TTITLE5=VJ Party Night(In My Dream)
TTITLE6=Dance Dance Revolution(IRver.) Make IT BETTER(MELTin' Butter Edit)
TTITLE7=Space Channel 5 5ch
TTITLE8=Dance ManiaX 2ndMIX MindParasite(traxx908)
TTITLE9=Crackin'DJ Part2 In Chaos -Koooooool Edit-
TTITLE10=Pop'n music(CS) 走れブン！ブン！(80's G-M)
TTITLE11=Um Jammer Lammy Do-Joh,Casino In My Mind
TTITLE12=データトラック
EXTD=
EXTT0=
EXTT1=
EXTT2=
EXTT3=
EXTT4=
EXTT5=
EXTT6=
EXTT7=
EXTT8=
EXTT9=
EXTT10=
EXTT11=
EXTT12=
PLAYORDER=
